<svg xmlns="http://www.w3.org/2000/svg" xmlns:xlink="http://www.w3.org/1999/xlink" xmlns:lucid="lucid" width="980" height="262.7"><g transform="translate(-200 -160)" lucid:page-tab-id="0_0"><path d="M220 260h140v72.2H220z" stroke="#000" stroke-width="2" fill="#fff"/><use xlink:href="#a" transform="matrix(1,0,0,1,225,265) translate(20.074999999999996 26.2125)"/><use xlink:href="#b" transform="matrix(1,0,0,1,225,265) translate(97.92500000000001 26.2125)"/><use xlink:href="#c" transform="matrix(1,0,0,1,225,265) translate(36.525 47.8125)"/><path d="M529.92 297.18c6.12 2.8 10.08 9.3 10.08 16.75 0 8.5-5.28 15.8-12.6 17.68l-2.4.6h-86.76c-10.08 0-18.24-9.18-18.24-20.22 0-11.05 8.16-20.22 18.24-20.22.84 0 1.32 0 2.16.22 3-5.34 8.16-8.37 13.92-8.37 1.56 0 3 .22 4.56.73v-.72c0-13.13 9.48-23.6 21.36-23.6 8.16 0 15.72 5.5 19.2 13.72 3-1.95 6.48-3.04 10.08-3.04 11.4 0 20.64 10.26 20.64 22.82.12 1.15 0 2.3-.24 3.68z" stroke="#000" stroke-opacity="0" fill="#00188f"/><use xlink:href="#d" transform="matrix(1,0,0,1,390,341.19015280135824) translate(66.55 14.4)"/><path d="M362 296.1h46.7" stroke="#000" stroke-width="2" fill="none"/><path d="M362.03 297.1H361v-2h1.03z"/><path d="M423.98 296.1l-14.27 4.63v-9.27z" stroke="#000" stroke-width="2"/><path d="M718.56 215.22c-2.16-5.2-6.72-9.52-12.6-12.22-2.64-9-10.2-18.03-21.36-18.03h-1.08c-4.68-3.34-9.24-4.97-13.92-4.97-2.76 0-5.64.64-8.4 1.85-2.16-1.14-4.56-1.7-7.2-1.7-5.76 0-11.16 2.62-14.52 5.74-1.2-.3-2.16-.36-3.36-.36-8.52 0-17.04 7.03-19.32 15.62-7.32 2.7-12.72 7.52-15.24 13.84-2.52 6.18-1.92 13 1.44 18.82s9.24 9.23 15.84 9.23c2.4 0 4.8-.5 7.08-1.5 3.96 3.63 9 5.76 13.8 5.76 1.68 0 3.36-.2 4.92-.7 3.84 3.2 9.84 4.4 14.76 4.4 5.64 0 10.68-1.5 13.92-4.2 2.16 1 4.56 1.57 6.96 1.57 6.24 0 12.6-3.26 16.08-7.88 1.92.84 3.96 1.2 6 1.2 6.72 0 12.96-4.33 15.84-11.15 2.28-5.18 2.4-10.5.36-15.33z" stroke="#000" stroke-opacity="0" stroke-width="1.31" fill="#3176bc"/><path d="M633.85 221.4h-6.08c-.73-3.32-3.72-5.8-7.35-5.8-4.1 0-7.45 3.38-7.45 7.46 0 4.15 3.36 7.47 7.45 7.47 3.54 0 6.53-2.43 7.35-5.75h6.08c.73 0 1.37.64 1.37 1.4v20.56c1.18.25 2.17.44 3.35.5V226.2c0-2.63-2.17-4.8-4.72-4.8zm-13.43 6.06c-2.36 0-4.36-1.97-4.36-4.4 0-2.42 2-4.34 4.36-4.34 2.45 0 4.45 1.92 4.45 4.34 0 2.43-2 4.4-4.45 4.4zm37.5-4.53v-7.02c0-2.6-2.1-4.7-4.73-4.7h-10.63c-.82 0-1.45-.65-1.45-1.4V184.5c-.55.44-1.1.9-1.64 1.4-.63-.2-1.1-.25-1.72-.32v24.2c0 2.6 2.18 4.7 4.8 4.7h10.63c.72 0 1.35.65 1.35 1.4v7.03c-3.26.77-5.8 3.7-5.8 7.28 0 4.1 3.35 7.47 7.53 7.47 4.08 0 7.44-3.38 7.44-7.46 0-3.57-2.45-6.5-5.8-7.27zm-1.64 11.62c-2.45 0-4.45-1.92-4.45-4.34s2-4.4 4.45-4.4c2.36 0 4.36 1.98 4.36 4.4 0 2.43-2 4.35-4.36 4.35zm47.48-18.64c0-4.07-3.36-7.45-7.44-7.45-4.18 0-7.54 3.38-7.54 7.46 0 3.6 2.45 6.52 5.8 7.3v1.4c0 .76-.62 1.4-1.44 1.4H679.7v-24.06c0-2.62-2.1-4.8-4.72-4.8h-7.35c-.73-3.3-3.73-5.8-7.27-5.8-4.17 0-7.53 3.32-7.53 7.47 0 4.16 3.36 7.48 7.53 7.48 3.54 0 6.54-2.43 7.27-5.75h7.35c.73 0 1.36.64 1.36 1.4v45.95c1.1.26 2.18.4 3.36.45V229.3h13.44c2.63 0 4.8-2.1 4.8-4.7v-1.35c3.28-.76 5.82-3.76 5.82-7.34zm-43.4-12.7c-2.45 0-4.35-1.96-4.35-4.4 0-2.4 1.9-4.33 4.36-4.33 2.36 0 4.36 1.92 4.36 4.34 0 2.44-2 4.4-4.36 4.4zm35.96 17.12c-2.45 0-4.45-1.98-4.45-4.4 0-2.43 2-4.35 4.45-4.35 2.36 0 4.35 1.92 4.35 4.34 0 2.44-2 4.42-4.35 4.42z" stroke="#000" stroke-opacity="0" stroke-width="1.31" fill="#fff"/><use xlink:href="#e" transform="matrix(1,0,0,1,570,260) translate(15.625 14.4)"/><use xlink:href="#f" transform="matrix(1,0,0,1,570,260) translate(95.47500000000001 14.4)"/><path d="M600 320h140v72.2H600z" stroke="#000" stroke-width="2" fill="#fff"/><use xlink:href="#g" transform="matrix(1,0,0,1,605,325) translate(2.5999999999999943 26.2125)"/><use xlink:href="#h" transform="matrix(1,0,0,1,605,325) translate(69.5 26.2125)"/><use xlink:href="#i" transform="matrix(1,0,0,1,605,325) translate(2.0999999999999943 47.8125)"/><use xlink:href="#j" transform="matrix(1,0,0,1,605,325) translate(79 47.8125)"/><path d="M523 275.42l1.4-.05 2.26-.2 2.1-.35 2.03-.45 1.93-.56 1.9-.68 1.87-.8 1.87-.97 1.9-1.13 1.94-1.33 2.06-1.6 2.2-1.96 2.44-2.47 2.9-3.33 4.02-5.25 15.62-22.2 2.9-3.3 2.45-2.48 2.2-1.95 2.03-1.6 1.95-1.34.65-.38" stroke="#000" stroke-width="2" fill="none"/><path d="M523.06 276.42H523l-1.7-1.64-.47-.3 2.17-.06z"/><path d="M598.12 217.06l-12.52 8.25-2.46-8.92z" stroke="#000" stroke-width="2"/><path d="M540.94 312.6l1.67.08 2.42.3 2.23.5 2.1.63 2.04.82 2 1.02 2.07 1.26 2.17 1.6 2.44 2.15 3.03 3.17 15.76 19.13 2.43 2.14.52.38" stroke="#000" stroke-width="2" fill="none"/><path d="M541 311.6l-.08 2-.94-.03-.07-1.55-.1-.46z"/><path d="M595.94 350.6l-15-.22 3-8.78z" stroke="#000" stroke-width="2"/><path d="M899.18 327.18h-32.96c3.97 14.35-1.34 16.4-24.62 16.4v7.52h79.2v-7.5c-23.3 0-25.58-2.07-21.62-16.42" stroke="#000" stroke-opacity="0" fill="#7a7a7a"/><path d="M932.8 241.1H826.48c-3.6 0-6.48 3.18-6.48 6.8v74.95c0 3.54 2.88 6.72 6.48 6.72H932.8c3.6 0 7.2-3.18 7.2-6.72V247.9c0-3.62-3.6-6.8-7.2-6.8" stroke="#000" stroke-opacity="0" fill="#a0a1a2"/><path d="M932.82 241.1H826.54c-3.6 0-6.54 3.18-6.54 6.8v74.95c0 3.54 2.93 6.72 6.54 6.72h2.5L932.8 241.1z" stroke="#000" stroke-opacity="0" fill="#fff" fill-opacity=".2"/><path d="M930.4 250.66V320H829.6v-69.34h100.8z" stroke="#000" stroke-opacity="0" fill="#59b4d9"/><path d="M841.6 343.92h79.2v7.18h-79.2v-7.18z" stroke="#000" stroke-opacity="0" fill="#a0a1a2"/><path d="M881.24 246.1c0 .94-.76 1.7-1.7 1.7-.95 0-1.7-.76-1.7-1.7s.75-1.7 1.7-1.7c.94 0 1.7.76 1.7 1.7" stroke="#000" stroke-opacity="0" fill="#b8d432"/><path d="M884.1 269.4l-1.24.74-1.06-1.93c-.4-.73-.47-1.35-.2-2 .25-.58.74-.9 1.35-.9h.14c.67.05 1.35.76 1.56 1.38.22.67.22 2.22-.57 2.7z" stroke="#000" stroke-opacity="0" fill="#fff" fill-opacity=".4"/><path d="M872.14 306.5c.02-.07-6.07-9.8-5.7-11.46 2.86-13.6 6.27-15.58 7.52-18.42 1.25-2.88.52-5.53 2-5.56 1.5-.04 5.9.3 6.93.65 1.05.35 2.56 1.43 3.42 3.77 1.12 2.15 2.24 4.3 2.6 6.7.03.24.14.47.3.63 2.8 3.1 3.38 6.9 3.2 10.9-.06 1-.22 2.5-.35 3.02-.13.5-3.95 12.86-10 12.7-6-.15-9.2-2.38-9.93-2.9z" stroke="#000" stroke-opacity="0" fill="#fbfbf9" fill-opacity=".85"/><path d="M904.55 303.62c-2.2-.1-3.37-1.43-3.4-2.7 0-1.47.63-3.33-1.52-3.5-2.15-.2-6.54-.43-7.72-.64-2.56-.48-2.68.56-2.73 1.3-.02.35.3 3.83-.04 5.2.02.57 0 1.15-.1 1.73-.26 1.6-.43 3.2-.65 4.78 0 .75-.02 1.53-.04 2.3 1.87 2.74 5.5 2.85 7.75.48 2.1-2.15 4.65-3.6 7.34-4.9.75-.38 1.47-.93 1.87-2 .42-1.06.04-2-.75-2.04z" stroke="#000" stroke-opacity="0" fill="#ff8c00" fill-opacity=".85"/><path d="M875.23 302.3c-.3 1.5-1.92 2.77-2.75 2.68-.53-.3-1.92-2.12-2.23-2.57-.9-1.37-4.9-7.1-6.07-6.64-.38.05-.6.3-.8.6-.07 0-.14.04-.22.1-.6-1.3-.53-2.57.1-3.8 1.5-2.67 2.16-5.43 2.92-8.4.26-1.02.87-1.86 1.5-2.65 1.18-1.47 1.14-3 2.35-4.47.8-.94 1.47-1.93 1.4-3.16-.23-3.45-.65-6.8-.54-10.25.15-3.35 3.13-6.16 6.45-7.4 3.43-1.28 6.67-.64 9.43 1.83 2.2 1.92 3.13 4.48 3.32 7.34 0 .53.03 1.03.03 1.57-.26 5.37 2 9.76 5.44 13.65 3.32 3.75 4.6 8.24 4.9 13.07.08 1.27-.34 2.45-.87 3.58-.7 1.68-1.73 2.67-2.67 3.1-.95.45-4.68.7-3.97-1.7.34-1.2.42-1.74-1.05-2.04.08-.98.27-2.02.3-3 .24-4-.48-7.15-3.54-10-.9-.9-.03-1-.07-1.78-.1-2.17-1.33-4.3-2.46-6.46-.12-.4-.3-.74-.57-1.04.08-.34-.1-.6-.26-.83.2-.7.46-1.34.35-2.07 0-.6-6.42-.9-7.2-.55-.35-.13-3.74-.28-3.74-.23-.45.34-.8.83-.94 1.38-.1.5.72 1.57.8 1.72l-.12 2.22-.23.73c-.5.84-1.08 1.68-1.6 2.5-.46.8-1.03 1.54-1.1 2.48-.34.94.98 2.23-.23 3.36-1.2 1.08-2.45 6.46-2.45 7.74-.04 1.38 2.5 4.48 3.43 5.37 1.74 1.68 3.32 2.27 2.98 4.04zM874 307.42c2.6.73 9.87.95 13.4-2.58l1.78-1.6c0 .58-.03 1.15-.13 1.74-.24 1.58-.42 3.17-.63 4.75l-.05 2.32c-3.24-.9-8.13-1.2-9.6-1.13-1.45.08-3.44.45-4.6.75l-.16-4.25z" stroke="#000" stroke-opacity="0" fill="#1e1e1e" fill-opacity=".85"/><path d="M901.36 301.32l-.16-.23.16.22zM900.4 297.97l-.2-.2.2.2z" stroke="#000" stroke-opacity="0" fill="#dda516" fill-opacity=".85"/><path d="M872.53 305.27l.1.17-.1-.17z" stroke="#000" stroke-opacity="0" fill="#8c5f07" fill-opacity=".85"/><path d="M900.2 297.77z" stroke="#000" stroke-opacity="0" fill="#e3a906" fill-opacity=".85"/><path d="M871.47 303.7c-1.88-1.94-3.33-4.28-4.66-6.93-.68-1.4-2.82-2.5-3.6-.33-.82 2.2-2.08 3.1-4.15 2.8-1.52-.18-2.94.97-2.3 2.88.7 2.05 1.45 3.66-.04 5.1-1.5 1.43-.87 2.93 1.24 3.2 2.1.3 7.65 1.55 10.85 3.23 3.2 1.7 5.74-1.5 6.08-2.44.85-2.32-1.5-5.54-3.4-7.5z" stroke="#000" stroke-opacity="0" fill="#ff8c00" fill-opacity=".85"/><path d="M878.6 280.86c-1.8 0-3-1.7-3.84-3.18 0 0-2.8-3.9-1.78-6.04.15-.3.38-.8 3.24-2.57l.53-.45.52-.26.32-.13c.4-.12.83-.24 1.26-.24h.2l.37.08.86.28 6.94 2.56.2 1.03c.16.85-.05 1.58-.23 2.18l-.25 1-.6.22c-.52.2-1.35 1.07-2 1.77-.66.7-1.28 1.37-1.9 1.77-.25.16-.5.34-.73.52-1 .73-1.93 1.44-3.1 1.44z" stroke="#000" stroke-opacity="0" fill="#1e1e1e" fill-opacity=".85"/><path d="M883.25 272.35c-1.23 1.06-2.63 1.97-4.4 2-.05.07-.05.07 0 0 .03-.4 0-.76-.33-1.05-.28-.24-.32-.6-.24-.9.33-1.26.13-2.52.18-3.8-.34-.1-1.1.17-1.2.2l-.44.23-.52.44c-.22.13-2.6 1.57-2.83 2.08-.63 1.32 1.42 4.56 1.73 4.94 2.4 4.18 3.73 2.36 5.98.8 1.2-.8 2.78-3.17 4.15-3.66.17-.68.46-1.34.32-2.06-.86.05-1.63.1-2.4.77z" stroke="#000" stroke-opacity="0" fill="#ff8c00" fill-opacity=".85"/><path d="M877.46 268.63h.02v-.02l-.02.03z" stroke="#000" stroke-opacity="0" fill="#e3a906" fill-opacity=".85"/><path d="M884.67 270.63c.52.26 1 .56 1 1.24-.96.06-1.8.12-2.64.84-1.35 1.17-3.17 2.9-5.1 2.94.1-.62-.8-1.53-.57-2.6.3-1.37.36-3.04.4-4.42.9-.35 1.7-.03 2.53.23l1 .6 1.8.7c.48.32 1.04.35 1.57.48z" stroke="#000" stroke-opacity="0" fill="#fcd116" fill-opacity=".85"/><path d="M875.2 266.33h2.4v2.4h-2.4v-2.4zM882.4 266.33h2.4v2.4h-2.4v-2.4z" stroke="#000" stroke-opacity="0" fill="#fff" fill-opacity=".9"/><path d="M843.02 343.92h76.35c.95 0 1.43.48 1.43 1.44v4.3c0 .95-.48 1.44-1.43 1.44h-76.35c-.95 0-1.42-.5-1.42-1.44v-4.3c0-.96.47-1.44 1.42-1.44z" stroke="#000" stroke-opacity="0" stroke-width="0" fill-opacity="0"/><use xlink:href="#k" transform="matrix(1,0,0,1,790,360.0950764006791) translate(28.099999999999994 14.4)"/><use xlink:href="#l" transform="matrix(1,0,0,1,790,360.0950764006791) translate(103.05 14.4)"/><use xlink:href="#m" transform="matrix(1,0,0,1,790,360.0950764006791) translate(24.14999999999999 36)"/><use xlink:href="#n" transform="matrix(1,0,0,1,790,360.0950764006791) translate(87 36)"/><path d="M719.68 215.52l1.3.04 2.15.16 2.07.25 1.98.35 1.92.43 1.87.52 1.84.6 1.8.7 1.8.8 1.8.92 1.82 1.03 1.85 1.18 1.9 1.35 1.96 1.55 2.07 1.8 2.2 2.12 2.43 2.57 2.74 3.2 3.33 4.32 4.8 6.92 16.88 25.84 3.32 4.3 2.75 3.23 2.42 2.57 2.2 2.13 2.08 1.8 1.96 1.54 1.9 1.35 1.85 1.17 1.82 1.03 1.62.82" stroke="#000" stroke-width="2" fill="none"/><path d="M719.73 214.53l-.05 2-.72-.02-.2-.78-.2-.5-.43-.73z"/><path d="M816.84 295.4l-14.93 1.43 2.02-9.05z" stroke="#000" stroke-width="2"/><path d="M742 356.06l1.37-.04 2.22-.2 2.07-.34 2-.45 1.9-.56 1.9-.68 1.84-.82 1.86-.95 1.88-1.13 1.93-1.32 2.03-1.6 2.18-1.93 2.42-2.46 2.85-3.3 3.9-5.1 16.2-23.3 2.85-3.3 2.42-2.46 2.18-1.94 2.03-1.6 1.93-1.3.46-.3" stroke="#000" stroke-width="2" fill="none"/><path d="M742.06 357.06l-1.06.04v-2l1-.04z"/><path d="M816.88 296.97l-12.5 8.3-2.48-8.93z" stroke="#000" stroke-width="2"/><path d="M1020 260h140v72.2h-140z" stroke="#000" stroke-width="2" fill="#fff"/><g><use xlink:href="#o" transform="matrix(1,0,0,1,1025,265) translate(18.599999999999994 34.0875)"/><use xlink:href="#p" transform="matrix(1,0,0,1,1025,265) translate(72.44999999999999 34.0875)"/></g><path d="M941 296.1h59.5" stroke="#000" stroke-width="2" fill="none"/><path d="M941.03 297.1H940v-2h1.03z"/><path d="M1015.76 296.1l-14.26 4.63v-9.27z" stroke="#000" stroke-width="2"/><defs><path d="M212-179c-10-28-35-45-73-45-59 0-87 40-87 99 0 60 29 101 89 101 43 0 62-24 78-52l27 14C228-24 195 4 139 4 59 4 22-46 18-125c-6-104 99-153 187-111 19 9 31 26 39 46" id="q"/><path d="M141-36C126-15 110 5 73 4 37 3 15-17 15-53c-1-64 63-63 125-63 3-35-9-54-41-54-24 1-41 7-42 31l-33-3c5-37 33-52 76-52 45 0 72 20 72 64v82c-1 20 7 32 28 27v20c-31 9-61-2-59-35zM48-53c0 20 12 33 32 33 41-3 63-29 60-74-43 2-92-5-92 41" id="r"/><path d="M210-169c-67 3-38 105-44 169h-31v-121c0-29-5-50-35-48C34-165 62-65 56 0H25l-1-190h30c1 10-1 24 2 32 10-44 99-50 107 0 11-21 27-35 58-36 85-2 47 119 55 194h-31v-121c0-29-5-49-35-48" id="s"/><path d="M100-194c63 0 86 42 84 106H49c0 40 14 67 53 68 26 1 43-12 49-29l28 8c-11 28-37 45-77 45C44 4 14-33 15-96c1-61 26-98 85-98zm52 81c6-60-76-77-97-28-3 7-6 17-6 28h103" id="t"/><path d="M114-163C36-179 61-72 57 0H25l-1-190h30c1 12-1 29 2 39 6-27 23-49 58-41v29" id="u"/><path d="M135-143c-3-34-86-38-87 0 15 53 115 12 119 90S17 21 10-45l28-5c4 36 97 45 98 0-10-56-113-15-118-90-4-57 82-63 122-42 12 7 21 19 24 35" id="v"/><g id="a"><use transform="matrix(0.05,0,0,0.05,0,0)" xlink:href="#q"/><use transform="matrix(0.05,0,0,0.05,12.950000000000001,0)" xlink:href="#r"/><use transform="matrix(0.05,0,0,0.05,22.950000000000003,0)" xlink:href="#s"/><use transform="matrix(0.05,0,0,0.05,37.900000000000006,0)" xlink:href="#t"/><use transform="matrix(0.05,0,0,0.05,47.900000000000006,0)" xlink:href="#u"/><use transform="matrix(0.05,0,0,0.05,53.85,0)" xlink:href="#r"/><use transform="matrix(0.05,0,0,0.05,63.85,0)" xlink:href="#v"/></g><path d="M234-2c-28 10-62 0-77-18C117 19 8 12 13-65c3-43 29-61 60-76-25-40-17-114 47-108 35 3 59 15 59 50 0 44-40 53-71 69 14 26 32 50 51 72 14-21 24-43 30-72l26 8c-9 33-21 57-38 82 13 13 33 22 57 15v23zM97-151c25-10 52-18 56-48-1-18-13-29-33-29-42 0-39 50-23 77zM42-66c-3 51 71 58 98 28-20-24-41-51-56-80-23 10-40 24-42 52" id="w"/><use transform="matrix(0.05,0,0,0.05,0,0)" xlink:href="#w" id="b"/><path d="M185-189c-5-48-123-54-124 2 14 75 158 14 163 119 3 78-121 87-175 55-17-10-28-26-33-46l33-7c5 56 141 63 141-1 0-78-155-14-162-118-5-82 145-84 179-34 5 7 8 16 11 25" id="x"/><path d="M117-194c89-4 53 116 60 194h-32v-121c0-31-8-49-39-48C34-167 62-67 57 0H25l-1-190h30c1 10-1 24 2 32 11-22 29-35 61-36" id="y"/><path d="M100-194c62-1 85 37 85 99 1 63-27 99-86 99S16-35 15-95c0-66 28-99 85-99zM99-20c44 1 53-31 53-75 0-43-8-75-51-75s-53 32-53 75 10 74 51 75" id="z"/><g id="c"><use transform="matrix(0.05,0,0,0.05,0,0)" xlink:href="#x"/><use transform="matrix(0.05,0,0,0.05,12,0)" xlink:href="#t"/><use transform="matrix(0.05,0,0,0.05,22,0)" xlink:href="#y"/><use transform="matrix(0.05,0,0,0.05,32,0)" xlink:href="#z"/><use transform="matrix(0.05,0,0,0.05,42,0)" xlink:href="#u"/><use transform="matrix(0.05,0,0,0.05,47.95,0)" xlink:href="#v"/></g><path d="M24 0v-261h32V0H24" id="A"/><path d="M84 4C-5 8 30-112 23-190h32v120c0 31 7 50 39 49 72-2 45-101 50-169h31l1 190h-30c-1-10 1-25-2-33-11 22-28 36-60 37" id="B"/><path d="M85-194c31 0 48 13 60 33l-1-100h32l1 261h-30c-2-10 0-23-3-31C134-8 116 4 85 4 32 4 16-35 15-94c0-66 23-100 70-100zm9 24c-40 0-46 34-46 75 0 40 6 74 45 74 42 0 51-32 51-76 0-42-9-74-50-73" id="C"/><g id="d"><use transform="matrix(0.05,0,0,0.05,0,0)" xlink:href="#q"/><use transform="matrix(0.05,0,0,0.05,12.950000000000001,0)" xlink:href="#A"/><use transform="matrix(0.05,0,0,0.05,16.900000000000002,0)" xlink:href="#z"/><use transform="matrix(0.05,0,0,0.05,26.900000000000002,0)" xlink:href="#B"/><use transform="matrix(0.05,0,0,0.05,36.900000000000006,0)" xlink:href="#C"/></g><path d="M177-190C167-65 218 103 67 71c-23-6-38-20-44-43l32-5c15 47 100 32 89-28v-30C133-14 115 1 83 1 29 1 15-40 15-95c0-56 16-97 71-98 29-1 48 16 59 35 1-10 0-23 2-32h30zM94-22c36 0 50-32 50-73 0-42-14-75-50-75-39 0-46 34-46 75s6 73 46 73" id="D"/><path d="M24-231v-30h32v30H24zM24 0v-190h32V0H24" id="E"/><path d="M59-47c-2 24 18 29 38 22v24C64 9 27 4 27-40v-127H5v-23h24l9-43h21v43h35v23H59v120" id="F"/><path d="M108 0H70L1-190h34L89-25l56-165h34" id="G"/><g id="e"><use transform="matrix(0.05,0,0,0.05,0,0)" xlink:href="#q"/><use transform="matrix(0.05,0,0,0.05,12.950000000000001,0)" xlink:href="#z"/><use transform="matrix(0.05,0,0,0.05,22.950000000000003,0)" xlink:href="#D"/><use transform="matrix(0.05,0,0,0.05,32.95,0)" xlink:href="#y"/><use transform="matrix(0.05,0,0,0.05,42.95,0)" xlink:href="#E"/><use transform="matrix(0.05,0,0,0.05,46.900000000000006,0)" xlink:href="#F"/><use transform="matrix(0.05,0,0,0.05,51.900000000000006,0)" xlink:href="#E"/><use transform="matrix(0.05,0,0,0.05,55.85,0)" xlink:href="#G"/><use transform="matrix(0.05,0,0,0.05,64.85000000000001,0)" xlink:href="#t"/></g><path d="M96-169c-40 0-48 33-48 73s9 75 48 75c24 0 41-14 43-38l32 2c-6 37-31 61-74 61-59 0-76-41-82-99-10-93 101-131 147-64 4 7 5 14 7 22l-32 3c-4-21-16-35-41-35" id="H"/><g id="f"><use transform="matrix(0.05,0,0,0.05,0,0)" xlink:href="#x"/><use transform="matrix(0.05,0,0,0.05,12,0)" xlink:href="#t"/><use transform="matrix(0.05,0,0,0.05,22,0)" xlink:href="#u"/><use transform="matrix(0.05,0,0,0.05,27.950000000000003,0)" xlink:href="#G"/><use transform="matrix(0.05,0,0,0.05,36.95,0)" xlink:href="#E"/><use transform="matrix(0.05,0,0,0.05,40.900000000000006,0)" xlink:href="#H"/><use transform="matrix(0.05,0,0,0.05,49.900000000000006,0)" xlink:href="#t"/><use transform="matrix(0.05,0,0,0.05,59.900000000000006,0)" xlink:href="#v"/></g><g id="g"><use transform="matrix(0.05,0,0,0.05,0,0)" xlink:href="#q"/><use transform="matrix(0.05,0,0,0.05,12.950000000000001,0)" xlink:href="#B"/><use transform="matrix(0.05,0,0,0.05,22.950000000000003,0)" xlink:href="#v"/><use transform="matrix(0.05,0,0,0.05,31.950000000000003,0)" xlink:href="#F"/><use transform="matrix(0.05,0,0,0.05,36.95,0)" xlink:href="#z"/><use transform="matrix(0.05,0,0,0.05,46.95,0)" xlink:href="#s"/></g><path d="M137 0h-34L2-248h35l83 218 83-218h36" id="I"/><path d="M106-169C34-169 62-67 57 0H25v-261h32l-1 103c12-21 28-36 61-36 89 0 53 116 60 194h-32v-121c2-32-8-49-39-48" id="J"/><g id="h"><use transform="matrix(0.05,0,0,0.05,0,0)" xlink:href="#I"/><use transform="matrix(0.05,0,0,0.05,11,0)" xlink:href="#t"/><use transform="matrix(0.05,0,0,0.05,21,0)" xlink:href="#J"/><use transform="matrix(0.05,0,0,0.05,31,0)" xlink:href="#E"/><use transform="matrix(0.05,0,0,0.05,34.95,0)" xlink:href="#H"/><use transform="matrix(0.05,0,0,0.05,43.95,0)" xlink:href="#A"/><use transform="matrix(0.05,0,0,0.05,47.900000000000006,0)" xlink:href="#t"/></g><g id="i"><use transform="matrix(0.05,0,0,0.05,0,0)" xlink:href="#q"/><use transform="matrix(0.05,0,0,0.05,12.950000000000001,0)" xlink:href="#z"/><use transform="matrix(0.05,0,0,0.05,22.950000000000003,0)" xlink:href="#B"/><use transform="matrix(0.05,0,0,0.05,32.95,0)" xlink:href="#y"/><use transform="matrix(0.05,0,0,0.05,42.95,0)" xlink:href="#F"/><use transform="matrix(0.05,0,0,0.05,47.95,0)" xlink:href="#E"/><use transform="matrix(0.05,0,0,0.05,51.900000000000006,0)" xlink:href="#y"/><use transform="matrix(0.05,0,0,0.05,61.900000000000006,0)" xlink:href="#D"/></g><path d="M240 0l2-218c-23 76-54 145-80 218h-23L58-218 59 0H30v-248h44l77 211c21-75 51-140 76-211h43V0h-30" id="K"/><g id="j"><use transform="matrix(0.05,0,0,0.05,0,0)" xlink:href="#K"/><use transform="matrix(0.05,0,0,0.05,14.950000000000001,0)" xlink:href="#z"/><use transform="matrix(0.05,0,0,0.05,24.950000000000003,0)" xlink:href="#C"/><use transform="matrix(0.05,0,0,0.05,34.95,0)" xlink:href="#t"/><use transform="matrix(0.05,0,0,0.05,44.95,0)" xlink:href="#A"/></g><path d="M205 0l-28-72H64L36 0H1l101-248h38L239 0h-34zm-38-99l-47-123c-12 45-31 82-46 123h93" id="L"/><path d="M115-194c55 1 70 41 70 98S169 2 115 4C84 4 66-9 55-30l1 105H24l-1-265h31l2 30c10-21 28-34 59-34zm-8 174c40 0 45-34 45-75s-6-73-45-74c-42 0-51 32-51 76 0 43 10 73 51 73" id="M"/><g id="k"><use transform="matrix(0.05,0,0,0.05,0,0)" xlink:href="#L"/><use transform="matrix(0.05,0,0,0.05,12,0)" xlink:href="#C"/><use transform="matrix(0.05,0,0,0.05,22,0)" xlink:href="#r"/><use transform="matrix(0.05,0,0,0.05,32,0)" xlink:href="#M"/><use transform="matrix(0.05,0,0,0.05,42,0)" xlink:href="#F"/><use transform="matrix(0.05,0,0,0.05,47,0)" xlink:href="#E"/><use transform="matrix(0.05,0,0,0.05,50.95,0)" xlink:href="#G"/><use transform="matrix(0.05,0,0,0.05,59.95,0)" xlink:href="#t"/></g><path d="M127-220V0H93v-220H8v-28h204v28h-85" id="N"/><path d="M101-234c-31-9-42 10-38 44h38v23H63V0H32v-167H5v-23h27c-7-52 17-82 69-68v24" id="O"/><g id="l"><use transform="matrix(0.05,0,0,0.05,0,0)" xlink:href="#N"/><use transform="matrix(0.05,0,0,0.05,10.3,0)" xlink:href="#u"/><use transform="matrix(0.05,0,0,0.05,16.25,0)" xlink:href="#r"/><use transform="matrix(0.05,0,0,0.05,26.25,0)" xlink:href="#O"/><use transform="matrix(0.05,0,0,0.05,30.899999999999995,0)" xlink:href="#O"/><use transform="matrix(0.05,0,0,0.05,35.9,0)" xlink:href="#E"/><use transform="matrix(0.05,0,0,0.05,39.85,0)" xlink:href="#H"/></g><g id="m"><use transform="matrix(0.05,0,0,0.05,0,0)" xlink:href="#q"/><use transform="matrix(0.05,0,0,0.05,12.950000000000001,0)" xlink:href="#z"/><use transform="matrix(0.05,0,0,0.05,22.950000000000003,0)" xlink:href="#y"/><use transform="matrix(0.05,0,0,0.05,32.95,0)" xlink:href="#F"/><use transform="matrix(0.05,0,0,0.05,37.95,0)" xlink:href="#u"/><use transform="matrix(0.05,0,0,0.05,43.900000000000006,0)" xlink:href="#z"/><use transform="matrix(0.05,0,0,0.05,53.900000000000006,0)" xlink:href="#A"/></g><path d="M30-248c87 1 191-15 191 75 0 78-77 80-158 76V0H30v-248zm33 125c57 0 124 11 124-50 0-59-68-47-124-48v98" id="P"/><g id="n"><use transform="matrix(0.05,0,0,0.05,0,0)" xlink:href="#P"/><use transform="matrix(0.05,0,0,0.05,12,0)" xlink:href="#u"/><use transform="matrix(0.05,0,0,0.05,17.95,0)" xlink:href="#z"/><use transform="matrix(0.05,0,0,0.05,27.950000000000003,0)" xlink:href="#D"/><use transform="matrix(0.05,0,0,0.05,37.95,0)" xlink:href="#u"/><use transform="matrix(0.05,0,0,0.05,43.900000000000006,0)" xlink:href="#r"/><use transform="matrix(0.05,0,0,0.05,53.900000000000006,0)" xlink:href="#s"/></g><g id="o"><use transform="matrix(0.05,0,0,0.05,0,0)" xlink:href="#N"/><use transform="matrix(0.05,0,0,0.05,10.3,0)" xlink:href="#u"/><use transform="matrix(0.05,0,0,0.05,16.25,0)" xlink:href="#r"/><use transform="matrix(0.05,0,0,0.05,26.25,0)" xlink:href="#O"/><use transform="matrix(0.05,0,0,0.05,30.899999999999995,0)" xlink:href="#O"/><use transform="matrix(0.05,0,0,0.05,35.9,0)" xlink:href="#E"/><use transform="matrix(0.05,0,0,0.05,39.85,0)" xlink:href="#H"/></g><path d="M30 0v-248h33v221h125V0H30" id="Q"/><g id="p"><use transform="matrix(0.05,0,0,0.05,0,0)" xlink:href="#Q"/><use transform="matrix(0.05,0,0,0.05,10,0)" xlink:href="#E"/><use transform="matrix(0.05,0,0,0.05,13.949999999999998,0)" xlink:href="#D"/><use transform="matrix(0.05,0,0,0.05,23.95,0)" xlink:href="#J"/><use transform="matrix(0.05,0,0,0.05,33.95,0)" xlink:href="#F"/></g></defs></g></svg>